<svg width="640" height="640" viewBox="0 0 640 640" fill="none" xmlns="http://www.w3.org/2000/svg">
<rect width="640" height="640" fill="#47D500"/>
<path d="M417.743 230.655C417.743 233.222 416.721 235.683 414.904 237.495L377.534 274.767C371.436 280.85 375.743 291.269 384.357 291.269H439.241C444.577 291.269 448.902 295.594 448.902 300.929V403.088C448.902 405.715 447.832 408.228 445.94 410.05L331.231 520.431C329.431 522.163 327.03 523.131 324.532 523.131H226.701C221.366 523.131 217.041 518.806 217.041 513.47V411.088C217.041 408.593 218.006 406.194 219.735 404.395L254.047 368.682C259.946 362.543 255.595 352.328 247.081 352.328H200.363C195.027 352.328 190.702 348.003 190.702 342.667V238.453C190.702 236.017 191.622 233.672 193.277 231.885L296.903 120.093C298.731 118.121 301.299 117 303.988 117H408.082C413.417 117 417.743 121.325 417.743 126.661V230.655Z" fill="white"/>
<path d="M417.743 230.655C417.743 233.222 416.721 235.683 414.904 237.495L377.534 274.767C371.436 280.85 375.743 291.269 384.357 291.269H439.241C444.577 291.269 448.902 295.594 448.902 300.929V403.088C448.902 405.715 447.832 408.228 445.94 410.05L331.231 520.431C329.431 522.163 327.03 523.131 324.532 523.131H226.701C221.366 523.131 217.041 518.806 217.041 513.47V411.088C217.041 408.593 218.006 406.194 219.735 404.395L254.047 368.682C259.946 362.543 255.595 352.328 247.081 352.328H200.363C195.027 352.328 190.702 348.003 190.702 342.667V238.453C190.702 236.017 191.622 233.672 193.277 231.885L296.903 120.093C298.731 118.121 301.299 117 303.988 117H408.082C413.417 117 417.743 121.325 417.743 126.661V230.655Z" fill="url(#paint0_linear_17968_17465)"/>
<defs>
<linearGradient id="paint0_linear_17968_17465" x1="80.3538" y1="-63.7897" x2="545.463" y2="141.49" gradientUnits="userSpaceOnUse">
<stop stop-color="white"/>
<stop offset="1" stop-color="white"/>
</linearGradient>
</defs>
</svg>
